squats_1_grf
version=1
nRows=24
nColumns=19
inDegrees=no
endheader
time	ground_force_right_vx	ground_force_right_vy	ground_force_right_vz	ground_force_right_px	ground_force_right_py	ground_force_right_pz	ground_force_right_mx	ground_force_right_my	ground_force_right_mz	ground_force_left_vx	ground_force_left_vy	ground_force_left_vz	ground_force_left_px	ground_force_left_py	ground_force_left_pz	ground_force_left_mx	ground_force_left_my	ground_force_left_mz
     20.99300000	    -19.22447152	    560.87894987	    -30.23502140	     -3.46615831	      0.00722504	      2.32028284	     -0.00740833	      2.54160855	      0.01150777	     27.77958069	    527.68464030	     25.32616530	     -3.46389546	      0.00800015	      2.68788146	      0.03284698	     -9.88620596	      0.01716718
     20.99400000	    -19.35834232	    561.45621436	    -30.59083063	     -3.46605381	      0.00722501	      2.32035595	     -0.00744787	      2.55517633	      0.01156920	     27.76847476	    528.51714174	     25.55450896	     -3.46381477	      0.00800033	      2.68783163	      0.03281487	     -9.87654300	      0.01715040
     20.99500000	    -19.49569956	    562.02899036	    -30.94696170	     -3.46594955	      0.00722498	      2.32042914	     -0.00748679	      2.56852823	      0.01162966	     27.74221795	    529.37001665	     25.78998940	     -3.46373082	      0.00800052	      2.68777996	      0.03278312	     -9.86698724	      0.01713381
     20.99600000	    -19.63637096	    562.59538625	    -31.30299329	     -3.46584557	      0.00722495	      2.32050234	     -0.00752492	      2.58160710	      0.01168887	     27.70157070	    530.24174943	     26.03171418	     -3.46364377	      0.00800072	      2.68772665	      0.03275188	     -9.85758535	      0.01711748
     20.99700000	    -19.78013066	    563.15348119	    -31.65847059	     -3.46574188	      0.00722493	      2.32057546	     -0.00756207	      2.59435456	      0.01174659	     27.64742810	    531.13061378	     26.27872597	     -3.46355383	      0.00800092	      2.68767188	      0.03272131	     -9.84838214	      0.01710150
     20.99800000	    -19.92669916	    563.70134230	    -32.01291017	     -3.46563850	      0.00722490	      2.32064844	     -0.00759809	      2.60671189	      0.01180254	     27.58080736	    532.03469033	     26.53001233	     -3.46346121	      0.00800113	      2.68761585	      0.03269153	     -9.83941995	      0.01708594
     20.99900000	    -20.07574411	    564.23704220	    -32.36580540	     -3.46553545	      0.00722487	      2.32072118	     -0.00763280	      2.61862077	      0.01185646	     27.50283390	    532.95188694	     26.78451601	     -3.46336614	      0.00800135	      2.68755875	      0.03266268	     -9.83073806	      0.01707086
     21.00000000	    -20.22688197	    564.75867660	    -32.71663234	     -3.46543276	      0.00722484	      2.32079361	     -0.00766604	      2.63002418	      0.01190809	     27.41472615	    533.87996115	     27.04114546	     -3.46326886	      0.00800157	      2.68750078	      0.03263489	     -9.82237225	      0.01705633
     21.00100000	    -20.37968071	    565.26438196	    -33.06485603	     -3.46533046	      0.00722481	      2.32086563	     -0.00769765	      2.64086713	      0.01195719	     27.31777944	    534.81654477	     27.29878560	     -3.46316964	      0.00800180	      2.68744215	      0.03260825	     -9.81435432	      0.01704241
     21.00200000	    -20.53366319	    565.75235280	    -33.40993697	     -3.46522856	      0.00722478	      2.32093717	     -0.00772747	      2.65109747	      0.01200351	     27.21334905	    535.75917001	     27.55630870	     -3.46306872	      0.00800203	      2.68738304	      0.03258286	     -9.80671177	      0.01702914
     21.00300000	    -20.68831149	    566.22085890	    -33.75133789	     -3.46512709	      0.00722476	      2.32100814	     -0.00775536	      2.66066658	      0.01204684	     27.10283274	    536.70529708	     27.81258528	     -3.46296639	      0.00800227	      2.68732366	      0.03255879	     -9.79946762	      0.01701656
     21.00400000	    -20.84307187	    566.66826181	    -34.08853042	     -3.46502608	      0.00722473	      2.32107845	     -0.00778120	      2.66953006	      0.01208697	     26.98765303	    537.65234265	     28.06649489	     -3.46286292	      0.00800251	      2.68726417	      0.03253610	     -9.79264017	      0.01700471
     21.00500000	    -20.99736041	    567.09303092	    -34.42100184	     -3.46492557	      0.00722471	      2.32114804	     -0.00780486	      2.67764836	      0.01212373	     26.86923947	    538.59770894	     28.31693678	     -3.46275858	      0.00800275	      2.68720477	      0.03251485	     -9.78624300	      0.01699360
     21.00600000	    -21.15056927	    567.49375862	    -34.74826157	     -3.46482558	      0.00722469	      2.32121683	     -0.00782625	      2.68498730	      0.01215695	     26.74901115	    539.53881307	     28.56284020	     -3.46265365	      0.00800300	      2.68714562	      0.03249505	     -9.78028495	      0.01698325
     21.00700000	    -21.30207328	    567.86917460	    -35.06984741	     -3.46472614	      0.00722467	      2.32128475	     -0.00784529	      2.69151861	      0.01218653	     26.62835973	    540.47311610	     28.80317436	     -3.46254839	      0.00800325	      2.68708686	      0.03247673	     -9.77477016	      0.01697367
     21.00800000	    -21.45123692	    568.21815899	    -35.38533137	     -3.46462730	      0.00722466	      2.32135174	     -0.00786191	      2.69722032	      0.01221234	     26.50863335	    541.39815151	     29.03695799	     -3.46244306	      0.00800350	      2.68702863	      0.03245988	     -9.76969823	      0.01696487
     21.00900000	    -21.59742149	    568.53975431	    -35.69432497	     -3.46452910	      0.00722465	      2.32141775	     -0.00787606	      2.70207705	      0.01223433	     26.39112151	    542.31155264	     29.26326822	     -3.46233792	      0.00800375	      2.68697108	      0.03244448	     -9.76506437	      0.01695682
     21.01000000	    -21.73999227	    568.83317595	    -35.99648386	     -3.46443157	      0.00722464	      2.32148272	     -0.00788773	      2.70608029	      0.01225246	     26.27704122	    543.21107877	     29.48124899	     -3.46223322	      0.00800399	      2.68691430	      0.03243051	     -9.76085959	      0.01694952
     21.01100000	    -21.87832570	    569.09782117	    -36.29151175	     -3.46433475	      0.00722463	      2.32154663	     -0.00789691	      2.70922852	      0.01226671	     26.16752465	    544.09463942	     29.69011861	     -3.46212917	      0.00800424	      2.68685840	      0.03241792	     -9.75707098	      0.01694294
     21.01200000	    -22.01181622	    569.33327637	    -36.57916349	     -3.46423870	      0.00722463	      2.32160943	     -0.00790361	      2.71152718	      0.01227712	     26.06360825	    544.96031677	     29.88917658	     -3.46202600	      0.00800449	      2.68680347	      0.03240666	     -9.75368198	      0.01693706
     21.01300000	    -22.13988293	    569.53932270	    -36.85924726	     -3.46414345	      0.00722462	      2.32167110	     -0.00790787	      2.71298861	      0.01228374	     25.96622355	    545.80638565	     30.07780954	     -3.46192391	      0.00800474	      2.68674957	      0.03239667	     -9.75067265	      0.01693183
     21.01400000	    -22.26197581	    569.71593970	    -37.13162578	     -3.46404905	      0.00722463	      2.32173163	     -0.00790974	      2.71363185	      0.01228665	     25.87618963	    546.63133129	     30.25549631	     -3.46182309	      0.00800498	      2.68669677	      0.03238785	     -9.74802000	      0.01692722
     21.01500000	    -22.37758142	    569.86330717	    -37.39621655	     -3.46395554	      0.00722463	      2.32179101	     -0.00790931	      2.71348229	      0.01228597	     25.79420725	    547.43386427	     30.42181194	     -3.46172370	      0.00800522	      2.68664509	      0.03238014	     -9.74569836	      0.01692319
     21.01600000	    -22.48622810	    569.98180507	    -37.65299120	     -3.46386298	      0.00722463	      2.32184923	     -0.00790665	      2.71257130	      0.01228185	     25.72085472	    548.21293294	     30.57643079	     -3.46162591	      0.00800546	      2.68659459	      0.03237343	     -9.74367970	      0.01691969
